/* XPM */
static char *_430ec324f564868c6dd417f4527ee3cImytngi7po92ovHC[] = {
/* columns rows colors chars-per-pixel */
"32 32 38 1 ",
"  c None",
". c #0A0B11",
"X c #0E0E13",
"o c #0F1116",
"O c #111217",
"+ c #13161B",
"@ c #16181C",
"# c #1C1F19",
"$ c #191A1C",
"% c #1C1D1E",
"& c #1A1C26",
"* c #1C2423",
"= c #0F343F",
"- c #402830",
"; c #5E423C",
": c #1A5556",
"> c #3C4851",
", c #2C7D63",
"< c #6B5853",
"1 c #617077",
"2 c #D45C1D",
"3 c #806352",
"4 c #AB684C",
"5 c #B3794D",
"6 c #4BA245",
"7 c #E38524",
"8 c #A19477",
"9 c #CEA65F",
"0 c #EBAB4C",
"q c #94CC47",
"w c #F1C256",
"e c #EAF257",
"r c #BDBB93",
"t c #99A5A7",
"y c #DAB580",
"u c #E7D494",
"i c #CBD2D9",
"p c white",
/* pixels */
"    &                           ",
"   &p&     &                    ",
"   &i&    &0&& &                ",
"   &i&    &2&7&0&               ",
"  &tit&   &&e2&7&&              ",
"  &tit&   &,qee2&7&             ",
"  &tit&   &,,6qee2&&&&          ",
"   &i&   &r&:,6qqe&88r&         ",
"   &<&  &r8&u:66qqq&38r&        ",
"   &<& &r88&yu,wwqw&338r&       ",
"   &<&&r8833&y:,6qq6&;38r&      ",
"   &<&&8833;;&y:==6=&-;38&      ",
"   &<&&833;;-&&y,,,,&--;3&      ",
"   &<&&33;;-&45&uuu&:&--&6&     ",
"   &<&&&;;-&:yy5&&&5:+$::,6&    ",
"   &<&&6&*&:5yy3;5yy:+ &:,6&    ",
"   &&&&6,:X:5y3;yyy9;+& &:,6&   ",
"  &66q&6,:O:53;yyy9;-3+  .,6&   ",
"  &qq&q6,:&;3;9999;-3;+ ..,6&   ",
"  &,,&6,:&;-;;;;;;-3;-3+qqq6&   ",
"  &qq&::&3-;------&;-3-+q&&q&   ",
"   &&&&&;-3&;-;-;&,-3-;+& &q&   ",
"   &<& &3;-&3;-;3&6,-;-;+&q&    ",
"   &<&&,--,6&3-3-&46,---@ &     ",
"   &<&,6qq64&3-3-&4,6qq6o       ",
"   &<&,6q6,5&3--3-&5,6q6%       ",
"   &<&,6665&3-;3--3&5,6#        ",
"   &<&&&6,,,&-3-3&;3&,,,+       ",
"   &<& &&,6,,&&&& &&&,666&      ",
"   &<& &6qq6,&      &,6qq6&     ",
"   &<&&16161&       &,16161&    ",
"   &;&&>&>&>&        &>&>&>&    "
};
